<?xml version="1.0" standalone="no"?>
<!DOCTYPE svg PUBLIC "-//W3C//DTD SVG 20010904//EN"
 "http://www.w3.org/TR/2001/REC-SVG-20010904/DTD/svg10.dtd">
<svg version="1.0" xmlns="http://www.w3.org/2000/svg"
 width="512.000000pt" height="512.000000pt" viewBox="0 0 512.000000 512.000000"
 preserveAspectRatio="xMidYMid meet">

<g transform="translate(0.000000,512.000000) scale(0.100000,-0.100000)"
fill="#000000" stroke="none">
<path d="M1184 4039 c-49 -14 -125 -70 -161 -117 -49 -64 -63 -126 -63 -273
l0 -127 -147 -4 c-138 -3 -152 -5 -205 -31 -62 -30 -115 -83 -150 -149 -20
-38 -23 -60 -26 -195 l-4 -153 -58 0 c-128 0 -214 -34 -287 -112 -68 -75 -78
-115 -78 -323 0 -168 2 -183 24 -233 30 -66 113 -144 178 -167 26 -9 87 -19
135 -22 l86 -6 4 -151 c3 -134 6 -156 26 -194 35 -66 88 -119 150 -149 53 -26
67 -28 204 -31 l146 -4 4 -146 c3 -137 5 -151 31 -204 30 -62 83 -115 149
-150 42 -22 51 -23 298 -23 247 0 256 1 298 23 66 35 119 88 149 150 l28 57 3
413 3 412 639 0 639 0 3 -412 3 -413 28 -57 c30 -62 83 -115 149 -150 42 -22
51 -23 298 -23 247 0 256 1 298 23 66 35 119 88 149 150 26 53 28 67 31 204
l4 146 146 4 c137 3 151 5 204 31 62 30 115 83 150 149 20 38 23 60 26 194 l4
151 86 6 c48 3 109 13 135 22 65 23 148 101 178 167 22 50 24 65 24 233 0 208
-10 248 -78 323 -73 78 -159 112 -287 112 l-58 0 -4 153 c-3 135 -6 157 -26
195 -35 66 -88 119 -150 149 -53 26 -67 28 -204 31 l-146 4 -4 146 c-3 137 -5
151 -31 204 -30 62 -83 115 -149 150 -42 22 -51 23 -298 23 -247 0 -256 -1
-298 -23 -66 -35 -119 -88 -149 -150 l-28 -57 -3 -412 -3 -413 -639 0 -639 0
-3 413 -3 412 -28 57 c-30 62 -83 115 -149 150 -41 22 -54 23 -283 25 -132 1
-254 -2 -271 -8z m467 -215 c62 -31 59 29 59 -1264 0 -1293 3 -1233 -59 -1264
-44 -23 -378 -23 -422 0 -62 31 -59 -29 -59 1262 0 851 3 1188 11 1211 22 63
51 71 257 71 147 0 189 -3 213 -16z m2240 0 c62 -31 59 29 59 -1264 0 -1293 3
-1233 -59 -1264 -44 -23 -378 -23 -422 0 -62 31 -59 -29 -59 1262 0 851 3
1188 11 1211 22 63 51 71 257 71 147 0 189 -3 213 -16z m-2931 -1264 l0 -750
-110 0 c-73 0 -122 5 -145 14 -67 28 -65 3 -65 736 0 730 -2 707 63 735 21 9
71 14 145 15 l112 0 0 -750z m3455 736 c67 -28 65 -3 65 -736 0 -733 2 -708
-65 -736 -23 -9 -72 -14 -145 -14 l-110 0 0 750 0 750 110 0 c73 0 122 -5 145
-14z m-3985 -736 l0 -210 -73 0 c-123 0 -147 34 -147 210 0 176 24 210 147
210 l73 0 0 -210z m2770 0 l0 -210 -640 0 -640 0 0 210 0 210 640 0 640 0 0
-210z m1659 194 c39 -28 51 -73 51 -194 0 -176 -24 -210 -147 -210 l-73 0 0
210 0 210 73 0 c51 0 79 -5 96 -16z"/>
</g>
</svg>
